# xmcd CD database file
#
# Track frame offsets:
#	150
#	18180
#	36625
#	51987
#	76255
#	98455
#	117867
#	141060
#	162642
#	180612
#	200315
#	218587
#
# Disc length: 3177 seconds
#
# Revision: 1
# Processed by: cddbd v1.5.2PL0 Copyright (c) Steve Scherf et al.
# Submitted via: CDex 1.51
#
DISCID=9c0c670c
DTITLE=Luis Guitarra - Como Tú, Como Yo
DYEAR=1996
DGENRE=Christian Rock
TTITLE0=El Diablo Sueña
TTITLE1=Como Tú, Como Yo
TTITLE2=Historia De Lucía
TTITLE3=Me Acompañabas Tú
TTITLE4=Entre Los Dos
TTITLE5=Una "S" En La Bata
TTITLE6=Apenas Cuesta Nada
TTITLE7=Tus Calles Y Mi Amor
TTITLE8=Con Ella
TTITLE9=La Chica Del Billar
TTITLE10=Esperarte
TTITLE11=Te Ayudaré
EXTD=YEAR: 1996
EXTT0=
EXTT1=
EXTT2=
EXTT3=
EXTT4=
EXTT5=
EXTT6=
EXTT7=
EXTT8=
EXTT9=
EXTT10=
EXTT11=
PLAYORDER=
